<svg width="63" height="79" viewBox="0 0 63 79" fill="none" xmlns="http://www.w3.org/2000/svg">
<path d="M45.8352 27.499C45.8352 22.6366 43.9036 17.9735 40.4654 14.5353C37.0272 11.097 32.3639 9.16553 27.5016 9.16553C22.6392 9.16553 17.976 11.097 14.5378 14.5353C11.0995 17.9735 9.16797 22.6366 9.16797 27.499C9.16797 34.09 14.9152 38.9018 18.3426 44.0002C20.284 46.8935 20.1758 53.1665 20.1758 53.1665H34.8437C34.8437 53.1665 34.7356 46.8935 36.677 44.0002C40.088 38.9018 45.8352 34.09 45.8352 27.499Z" stroke="#2A2D34" stroke-width="2" stroke-miterlimit="10"/>
<path fill-rule="evenodd" clip-rule="evenodd" d="M54.686 61.5482C58.4033 59.2831 60.8758 55.9937 61.9341 52.4602C62.0747 51.9914 61.8383 51.4064 61.3671 51.0432C54.7627 45.9548 46.2903 44.5884 40.2443 48.2825C37.1173 50.1765 35.1056 53.1451 34.2514 56.5823C34.0779 57.2799 35.0094 58.0026 35.5653 57.6062C40.518 54.0734 47.4185 52.5916 52.0885 53.9458C47.5988 52.6511 40.4053 55.7975 35.8046 60.0628C35.2159 60.6083 35.5344 61.7458 36.415 62.2258C41.7399 65.1287 48.8978 65.0774 54.686 61.5482Z" fill="#3CB27A"/>
<path fill-rule="evenodd" clip-rule="evenodd" d="M42.3824 73.3577C45.1366 75.0259 47.9107 75.8525 50.2215 75.869C50.5281 75.8713 50.7383 75.6496 50.7328 75.3349C50.6557 70.925 47.8291 66.0867 43.3444 63.3751C41.0336 61.97 38.622 61.3438 36.4477 61.4233C36.0063 61.4394 36.0145 62.0622 36.4569 62.3025C40.3985 64.4434 44.072 67.9722 45.3123 70.7344C44.116 68.08 39.4401 64.6555 35.2588 62.8228C34.7239 62.5883 34.2561 62.9425 34.3713 63.499C35.0675 66.8643 38.0928 70.7605 42.3824 73.3577Z" fill="#3CB27A"/>
<path d="M20.1685 27.4989C22.1935 27.4989 23.8351 25.8573 23.8351 23.8323C23.8351 21.8073 22.1935 20.1658 20.1685 20.1658C18.1435 20.1658 16.502 21.8073 16.502 23.8323C16.502 25.8573 18.1435 27.4989 20.1685 27.4989Z" stroke="#2A2D34" stroke-width="2" stroke-miterlimit="10"/>
<path d="M38.503 23.8324C38.503 24.5576 38.288 25.2665 37.8851 25.8695C37.4822 26.4725 36.9096 26.9423 36.2396 27.2198C35.5696 27.4973 34.8324 27.5701 34.1212 27.4286C33.4099 27.2871 32.7566 26.9378 32.2438 26.4251C31.7311 25.9123 31.3818 25.2592 31.2404 24.548C31.0989 23.8367 31.1715 23.0992 31.449 22.4293C31.7265 21.7593 32.1965 21.1866 32.7995 20.7837C33.4024 20.3809 34.1113 20.1658 34.8365 20.1658C35.8089 20.1658 36.7415 20.5521 37.4291 21.2397C38.1167 21.9273 38.503 22.86 38.503 23.8324V23.8324Z" stroke="#2A2D34" stroke-width="2" stroke-miterlimit="10"/>
<path d="M34.8331 27.499L27.5 44.2279" stroke="#2A2D34" stroke-width="2" stroke-miterlimit="10"/>
<path d="M20.168 27.499L27.5011 43.9985" stroke="#2A2D34" stroke-width="2" stroke-miterlimit="10"/>
<path d="M27.5 42.167V54.9999" stroke="#2A2D34" stroke-width="2" stroke-miterlimit="10"/>
<path d="M25.666 29.3325H29.3326" stroke="#2A2D34" stroke-width="2" stroke-miterlimit="10"/>
<path d="M34.8362 53.1665H20.1699V69.666H34.8362V53.1665Z" stroke="#2A2D34" stroke-width="2" stroke-miterlimit="10"/>
<path d="M20 59H35" stroke="#2A2D34" stroke-width="2" stroke-miterlimit="10"/>
<path d="M20 64H35" stroke="#2A2D34" stroke-width="2" stroke-miterlimit="10"/>
<path d="M27.5039 75.1658V71.4993" stroke="#2A2D34" stroke-width="2" stroke-miterlimit="10"/>
<path d="M27.5 0V5.49984" stroke="#2A2D34" stroke-width="2" stroke-miterlimit="10"/>
<path d="M20.3828 0.935547L21.8065 6.24861" stroke="#2A2D34" stroke-width="2" stroke-miterlimit="10"/>
<path d="M13.75 3.68311L16.5007 8.4457" stroke="#2A2D34" stroke-width="2" stroke-miterlimit="10"/>
<path d="M8.05469 8.05396L11.9441 11.9433" stroke="#2A2D34" stroke-width="2" stroke-miterlimit="10"/>
<path d="M3.68359 13.7485L8.44619 16.4993" stroke="#2A2D34" stroke-width="2" stroke-miterlimit="10"/>
<path d="M0.9375 20.3821L6.25057 21.8058" stroke="#2A2D34" stroke-width="2" stroke-miterlimit="10"/>
<path d="M48.75 33.1938L54.0631 34.6175" stroke="#2A2D34" stroke-width="2" stroke-miterlimit="10"/>
<path d="M0 27.499H5.49984" stroke="#2A2D34" stroke-width="2" stroke-miterlimit="10"/>
<path d="M49.502 27.499H55.0018" stroke="#2A2D34" stroke-width="2" stroke-miterlimit="10"/>
<path d="M0.9375 34.6175L6.25057 33.1938" stroke="#2A2D34" stroke-width="2" stroke-miterlimit="10"/>
<path d="M48.75 21.8058L54.0631 20.3821" stroke="#2A2D34" stroke-width="2" stroke-miterlimit="10"/>
<path d="M46.5508 16.4993L51.315 13.7485" stroke="#2A2D34" stroke-width="2" stroke-miterlimit="10"/>
<path d="M43.0566 11.9433L46.946 8.05396" stroke="#2A2D34" stroke-width="2" stroke-miterlimit="10"/>
<path d="M38.5 8.4457L41.2507 3.68311" stroke="#2A2D34" stroke-width="2" stroke-miterlimit="10"/>
<path d="M33.1953 6.24861L34.619 0.935547" stroke="#2A2D34" stroke-width="2" stroke-miterlimit="10"/>
</svg>
