<svg width="92" height="92" viewBox="0 0 92 92" fill="none" xmlns="http://www.w3.org/2000/svg">
<path fill-rule="evenodd" clip-rule="evenodd" d="M73.4342 1C63.7941 1 55.9795 8.8147 55.9795 18.455C55.9795 28.0953 63.7941 35.91 73.4342 35.91C83.0738 35.91 90.889 28.0953 90.889 18.455C90.889 8.8147 83.0738 1 73.4342 1Z" stroke="#2A2D34" stroke-width="2"/>
<path fill-rule="evenodd" clip-rule="evenodd" d="M51.9675 55.1226C42.3274 55.1226 34.5127 62.9373 34.5127 72.5776C34.5127 82.2173 42.3274 90.0326 51.9675 90.0326C61.6076 90.0326 69.4222 82.2173 69.4222 72.5776C69.4222 62.9373 61.6076 55.1226 51.9675 55.1226Z" stroke="#2A2D34" stroke-width="2"/>
<path fill-rule="evenodd" clip-rule="evenodd" d="M18.4547 20.4426C8.81474 20.4426 1 28.2573 1 37.8976C1 47.5373 8.81474 55.3526 18.4547 55.3526C28.0946 55.3526 35.9095 47.5373 35.9095 37.8976C35.9095 28.2573 28.0946 20.4426 18.4547 20.4426Z" stroke="#2A2D34" stroke-width="2"/>
<path d="M35.4502 33.6287L57.2295 25.6912" stroke="#2A2D34" stroke-width="2"/>
<path d="M31.1777 50.5742L40.2438 59.0469" stroke="#2A2D34" stroke-width="2"/>
<path d="M57.959 56.1038L67.3376 33.9856" stroke="#2A2D34" stroke-width="2"/>
<path d="M10.1361 46.5228C10.1149 46.4221 10.0978 46.3163 10.0838 46.207C9.99354 45.4973 10.0039 44.8154 10.1189 44.1611C10.2351 43.4998 10.4575 42.8672 10.7898 42.2638C11.1209 41.6625 11.5601 41.0923 12.1114 40.5534C12.6538 40.023 13.308 39.5214 14.0778 39.0495C14.1712 38.992 14.2669 38.9467 14.3715 38.9135V38.9115C14.5052 38.8697 14.6402 38.8525 14.7835 38.8621C15.1614 38.8873 15.2107 39.0051 15.4696 39.1593C17.708 40.4919 21.224 40.5373 23.3605 39.122C23.4654 39.0253 23.5813 38.9563 23.7096 38.9115C23.8542 38.8606 24.0012 38.844 24.1533 38.8571C24.2705 38.8666 24.3789 38.8938 24.4833 38.9346C24.5646 38.9669 24.6379 39.0041 24.7085 39.0469C25.4254 39.4806 26.0532 39.9515 26.5877 40.4612C27.1276 40.9755 27.5721 41.5295 27.9171 42.1238C28.2622 42.7191 28.5065 43.3527 28.6452 44.0277C28.783 44.6975 28.8167 45.4042 28.742 46.1481C28.7297 46.2715 28.7088 46.3964 28.6794 46.5228" stroke="#2A2D34" stroke-width="2" stroke-linecap="round" stroke-linejoin="round"/>
<path fill-rule="evenodd" clip-rule="evenodd" d="M19.4017 27.5073C16.5241 27.5073 14.1914 29.5037 14.1914 31.9666C14.1914 34.4296 16.5241 36.4259 19.4017 36.4259C22.2794 36.4259 24.6121 34.4296 24.6121 31.9666C24.6121 29.5037 22.2794 27.5073 19.4017 27.5073Z" stroke="#2A2D34" stroke-width="2" stroke-linecap="round" stroke-linejoin="round"/>
<path d="M64.0121 26.9019C63.9909 26.8012 63.9738 26.6954 63.9597 26.5861C63.8697 25.8765 63.8797 25.1945 63.995 24.5403C64.1109 23.879 64.3333 23.2464 64.6657 22.643C64.9969 22.0416 65.4364 21.4715 65.987 20.9325C66.53 20.4022 67.1836 19.9005 67.9537 19.4286C68.0473 19.3712 68.1426 19.3259 68.2473 19.2926V19.2906C68.3814 19.2488 68.5162 19.2317 68.6597 19.2413C69.0374 19.2664 69.0868 19.3843 69.3457 19.5384C71.5842 20.8711 75.0999 20.9164 77.2367 19.5011C77.3414 19.4044 77.4573 19.3354 77.5855 19.2906C77.7302 19.2397 77.8773 19.2231 78.0291 19.2362C78.1462 19.2458 78.255 19.273 78.3591 19.3138C78.4403 19.346 78.5139 19.3833 78.5845 19.4261C79.301 19.8597 79.9293 20.3307 80.4635 20.8404C81.0036 21.3546 81.4484 21.9086 81.7931 22.503C82.1384 23.0978 82.3826 23.7319 82.5208 24.4068C82.6591 25.0767 82.6926 25.7833 82.6179 26.5272C82.6056 26.6506 82.585 26.7755 82.5556 26.9019" stroke="#2A2D34" stroke-width="2" stroke-linecap="round" stroke-linejoin="round"/>
<path fill-rule="evenodd" clip-rule="evenodd" d="M73.2787 7.97559C70.401 7.97559 68.0684 9.97195 68.0684 12.4349C68.0684 14.8978 70.401 16.8942 73.2787 16.8942C76.1559 16.8942 78.4891 14.8978 78.4891 12.4349C78.4891 9.97195 76.1559 7.97559 73.2787 7.97559Z" stroke="#2A2D34" stroke-width="2" stroke-linecap="round" stroke-linejoin="round"/>
<path d="M42.7533 81.1136C42.7321 81.0134 42.715 80.9076 42.7009 80.7978C42.6109 80.0881 42.6209 79.4062 42.7362 78.7524C42.8521 78.0906 43.0745 77.4579 43.4069 76.855C43.7381 76.2537 44.1776 75.6835 44.7288 75.1446C45.2712 74.6142 45.9254 74.1125 46.6949 73.6401C46.7885 73.5827 46.8838 73.5373 46.9885 73.5046V73.5026C47.1226 73.4608 47.2574 73.4432 47.4009 73.4527C47.7786 73.4784 47.828 73.5963 48.0869 73.7504C50.3254 75.0831 53.8411 75.1279 55.9778 73.7131C56.0826 73.6164 56.1985 73.5474 56.3267 73.5021C56.4714 73.4512 56.6185 73.4351 56.7703 73.4477C56.8874 73.4578 56.9962 73.4845 57.1003 73.5258C57.1815 73.5575 57.2551 73.5953 57.3257 73.6381C58.0428 74.0717 58.6705 74.5427 59.2047 75.0519C59.7448 75.5666 60.1895 76.1202 60.5343 76.715C60.8796 77.3099 61.1238 77.944 61.2626 78.6189C61.4003 79.2888 61.4338 79.995 61.3591 80.7394C61.3468 80.8628 61.3262 80.9877 61.2967 81.1136" stroke="#2A2D34" stroke-width="2" stroke-linecap="round" stroke-linejoin="round"/>
<path fill-rule="evenodd" clip-rule="evenodd" d="M51.9154 62.2764C49.0377 62.2764 46.7051 64.2727 46.7051 66.7357C46.7051 69.1981 49.0377 71.195 51.9154 71.195C54.7926 71.195 57.1258 69.1981 57.1258 66.7357C57.1258 64.2727 54.7926 62.2764 51.9154 62.2764Z" stroke="#2A2D34" stroke-width="2" stroke-linecap="round" stroke-linejoin="round"/>
<path fill-rule="evenodd" clip-rule="evenodd" d="M54.7468 39.8523C55.8818 37.5543 55.9695 35.2541 55.2118 33.3494C55.1114 33.0966 54.7664 32.9272 54.3793 32.9369C48.9533 33.0747 43.9237 35.4857 42.0817 39.2275C41.1227 41.1556 41.1607 43.1537 41.9912 44.9443C42.1597 45.3078 42.9269 45.2906 43.075 44.9219C44.3944 41.6374 47.5199 38.5505 50.5171 37.4817C47.6383 38.5123 44.9794 42.4237 44.1218 45.9006C44.0119 46.3454 44.6074 46.725 45.2566 46.6207C49.1825 45.9902 52.9806 43.4313 54.7468 39.8523Z" fill="#3CB27A"/>
<path fill-rule="evenodd" clip-rule="evenodd" d="M52.6052 49.3249C54.6982 49.071 56.4869 48.4458 57.7254 47.634C57.8898 47.5263 57.9189 47.3559 57.7983 47.2216C56.1071 45.3398 52.7894 44.247 49.3831 44.6625C47.6251 44.8732 46.1047 45.4567 44.9749 46.2617C44.7455 46.4251 44.9829 46.6918 45.3088 46.639C48.2118 46.169 51.4912 46.3947 53.1862 47.1509C51.555 46.4258 47.7801 46.6004 44.8645 47.2889C44.4915 47.3769 44.3746 47.696 44.6442 47.8962C46.2747 49.1062 49.3459 49.7208 52.6052 49.3249Z" fill="#3CB27A"/>
</svg>
