<svg width="69" height="73" viewBox="0 0 69 73" fill="none" xmlns="http://www.w3.org/2000/svg">
<path fill-rule="evenodd" clip-rule="evenodd" d="M56.3613 26.6113C56.4754 23.8491 55.6095 21.3834 54.1161 19.5785C53.9181 19.339 53.5257 19.2576 53.1678 19.3785C48.1515 21.0732 44.4426 25.0668 44.2623 29.5628C44.1603 31.8823 45.0192 33.9916 46.5336 35.6546C46.841 35.9922 47.5511 35.755 47.5377 35.3216C47.4178 31.4599 49.0679 27.2924 51.4297 25.3031C49.1629 27.2182 48.2887 32.1273 48.9197 36.0613C49.0003 36.5646 49.7135 36.7974 50.2775 36.5015C53.6882 34.7121 56.1848 30.913 56.3613 26.6113Z" fill="#3CB27A"/>
<path fill-rule="evenodd" clip-rule="evenodd" d="M58.261 37.274C60.1133 36.4073 61.5279 35.2334 62.3514 34.0186C62.4607 33.8574 62.4176 33.6683 62.2495 33.5602C59.8929 32.0461 56.3406 31.8335 53.3271 33.2464C51.7702 33.9716 50.5892 35.0247 49.8646 36.2013C49.7175 36.4401 50.0493 36.6553 50.3323 36.5064C52.8528 35.1791 56.0119 34.4828 57.9083 34.8015C56.0844 34.4975 52.627 35.7602 50.1847 37.3227C49.8722 37.5226 49.8944 37.8945 50.229 38.0299C52.2521 38.8486 55.3768 38.6242 58.261 37.274Z" fill="#3CB27A"/>
<path d="M59.7407 50.6119C59.7407 41.2389 47.4667 33.64 32.3247 33.64C28.9113 33.6345 25.5098 34.0411 22.1938 34.851C21.3517 33.4806 20.3718 32.1999 19.269 31.0289C16.658 28.4179 11.436 28.418 11.436 28.418C12.9699 29.9751 14.2874 31.7316 15.353 33.64C15.7829 34.7172 15.9792 35.8732 15.9297 37.032C11.6607 39.01 8.35479 41.7319 6.52979 44.8979C6.19354 45.5119 5.73688 46.0517 5.18701 46.4849C4.63714 46.9181 4.00569 47.2358 3.33008 47.4189L1 48.001V55.834L1.57568 55.9779C4.7365 56.8149 7.65815 58.3793 10.1069 60.546L10.167 60.5969C11.9503 62.0776 13.1134 64.1733 13.4268 66.47L14.0557 71.501H21.8887L22.521 66.4449C25.7366 67.2048 29.0298 67.5871 32.334 67.584C36.0749 67.5941 39.8002 67.1047 43.4116 66.1289L44.084 71.501H51.917L52.1616 69.543C52.6589 65.3704 54.3031 61.4173 56.9116 58.1229C58.6926 56.0204 59.6922 53.3669 59.7407 50.6119V50.6119Z" stroke="#333333" stroke-width="2" stroke-miterlimit="10"/>
<path d="M59.7402 48H62.3525C63.7375 48 65.0656 47.4498 66.0449 46.4705C67.0242 45.4911 67.5742 44.1629 67.5742 42.778C67.5742 41.393 67.0242 40.0648 66.0449 39.0854C65.0656 38.1061 63.7375 37.5559 62.3525 37.5559C61.6601 37.5559 60.996 37.831 60.5063 38.3207C60.0167 38.8103 59.7412 39.4745 59.7412 40.167C59.7412 40.8595 60.0167 41.5235 60.5063 42.0132C60.996 42.5028 61.6601 42.778 62.3525 42.778C63.7376 42.778 65.066 42.2277 66.0454 41.2483C67.0248 40.2689 67.5747 38.9405 67.5747 37.5554C67.5747 36.1703 67.0248 34.842 66.0454 33.8625C65.066 32.8831 63.7376 32.333 62.3525 32.333" stroke="#333333" stroke-width="2" stroke-miterlimit="10"/>
<path d="M47.9902 41.912C43.028 39.8466 37.6989 38.8074 32.3242 38.8569C29.6964 38.8555 27.074 39.0959 24.4902 39.5749" stroke="#333333" stroke-width="2" stroke-miterlimit="10"/>
<path d="M39.5034 9.48572C39.5034 8.62018 39.1594 7.79013 38.5474 7.1781C37.9353 6.56608 37.1053 6.22217 36.2397 6.22217C35.3742 6.22217 34.5442 6.56608 33.9321 7.1781C33.3201 7.79013 32.9766 8.62018 32.9766 9.48572C32.9766 11.2857 34.6083 11.9338 36.2393 12.7498C37.8703 13.5658 39.5034 14.2107 39.5034 16.0137C39.5034 16.8792 39.1594 17.7094 38.5474 18.3214C37.9353 18.9334 37.1053 19.2772 36.2397 19.2772C35.3742 19.2772 34.5442 18.9334 33.9321 18.3214C33.3201 17.7094 32.9766 16.8792 32.9766 16.0137" stroke="#333333" stroke-width="2" stroke-miterlimit="10"/>
<path d="M36.2383 6.22184V3.61084" stroke="#333333" stroke-width="2" stroke-miterlimit="10"/>
<path d="M36.2383 19.2778V21.8888" stroke="#333333" stroke-width="2" stroke-miterlimit="10"/>
<path d="M36.2402 24.5C42.7296 24.5 47.9902 19.2393 47.9902 12.75C47.9902 6.26065 42.7296 1 36.2402 1C29.7509 1 24.4902 6.26065 24.4902 12.75C24.4902 19.2393 29.7509 24.5 36.2402 24.5Z" stroke="#333333" stroke-width="2" stroke-miterlimit="10"/>
</svg>
