<svg width="126" height="95" viewBox="0 0 126 95" fill="none" xmlns="http://www.w3.org/2000/svg">
<path fill-rule="evenodd" clip-rule="evenodd" d="M116.8 22.0302C119.932 17.7366 121.181 12.8704 120.722 8.39049C120.661 7.79606 120.121 7.24704 119.419 7.05795C109.591 4.40989 99.3972 6.83309 94.3077 13.8276C91.6675 17.4265 90.7879 21.7154 91.4328 25.9911C91.5636 26.859 92.9522 27.2382 93.3936 26.531C97.3258 20.2299 104.414 15.3303 110.314 14.6724C104.645 15.313 98.0053 22.2268 94.8128 29.1894C94.4041 30.08 95.2955 31.2137 96.5132 31.343C103.876 32.1251 111.924 28.7182 116.8 22.0302Z" fill="#3CB27A"/>
<path fill-rule="evenodd" clip-rule="evenodd" d="M108.454 41.1042C112.34 41.6968 115.855 41.3311 118.469 40.2685C118.816 40.1277 118.949 39.7793 118.796 39.427C116.645 34.49 111.194 30.3565 104.868 29.397C101.605 28.8936 98.5924 29.3158 96.1776 30.4227C95.6874 30.6474 95.988 31.3459 96.5994 31.4099C102.046 31.98 107.84 34.2406 110.531 36.7751C107.94 34.3415 101.064 32.6676 95.4917 32.5573C94.7788 32.543 94.417 33.1614 94.8073 33.7351C97.167 37.2042 102.401 40.1825 108.454 41.1042Z" fill="#3CB27A"/>
<path fill-rule="evenodd" clip-rule="evenodd" d="M53.9016 3.03174C29.2084 3.03174 9.19141 23.1714 9.19141 48.0159C9.19141 72.8604 29.2084 93.0001 53.9016 93.0001C78.5933 93.0001 98.6118 72.8604 98.6118 48.0159C98.6118 23.1714 78.5933 3.03174 53.9016 3.03174Z" stroke="#2A2D34" stroke-width="2.5"/>
<path d="M29.9731 69.7851C29.9189 69.5255 29.8752 69.2529 29.839 68.9712C29.6084 67.1423 29.634 65.3848 29.9294 63.6987C30.2263 61.9944 30.7959 60.3641 31.6473 58.8091C32.4957 57.2593 33.6214 55.7899 35.0319 54.4011C36.4229 53.0342 38.0971 51.7414 40.0697 50.5252C40.3093 50.3772 40.5534 50.2604 40.8216 50.1747V50.1695C41.1652 50.0618 41.5103 50.0177 41.878 50.0423C42.8455 50.1072 42.9721 50.411 43.6351 50.8082C49.3691 54.2427 58.3746 54.3595 63.8479 50.7121C64.1161 50.4629 64.413 50.2851 64.7415 50.1695C65.1122 50.0384 65.4889 49.9956 65.8777 50.0293C66.1776 50.054 66.4564 50.1241 66.7231 50.2292C66.9311 50.3123 67.1194 50.4084 67.3003 50.5187C69.1357 51.6363 70.7452 52.8499 72.1135 54.1635C73.4969 55.4888 74.6361 56.9166 75.5192 58.4483C76.4038 59.9812 77.0291 61.6154 77.3833 63.3547C77.7374 65.0811 77.8233 66.9022 77.6319 68.8194C77.6003 69.1374 77.5475 69.4593 77.4722 69.7851" stroke="#2A2D34" stroke-width="2.5" stroke-linecap="round" stroke-linejoin="round"/>
<path fill-rule="evenodd" clip-rule="evenodd" d="M53.7106 21.0088C46.3392 21.0088 40.3643 26.1537 40.3643 32.5011C40.3643 38.8485 46.3392 43.9934 53.7106 43.9934C61.0805 43.9934 67.0569 38.8485 67.0569 32.5011C67.0569 26.1537 61.0805 21.0088 53.7106 21.0088Z" stroke="#2A2D34" stroke-width="2.5" stroke-linecap="round" stroke-linejoin="round"/>
<rect x="0.254883" y="24.1699" width="28.759" height="33.503" fill="#9BD8CE"/>
<line x1="10.2666" y1="30.2971" x2="10.2666" y2="53.6284" stroke="#02050F" stroke-width="2.5"/>
<line x1="0.255859" y1="42.1711" x2="20.2835" y2="42.1711" stroke="#02050F" stroke-width="2.5"/>
</svg>
