<svg width="94" height="92" viewBox="0 0 94 92" fill="none" xmlns="http://www.w3.org/2000/svg">
<path d="M74.2455 68.3859V13.6959L60.573 1H22.4854V71.3157H45.9239" stroke="#2A2D34" stroke-width="2" stroke-miterlimit="10"/>
<path d="M60.5732 13.6971H74.2457L60.5732 1.00122V13.6971Z" stroke="#2A2D34" stroke-width="2" stroke-linecap="round" stroke-linejoin="round"/>
<path d="M22.4856 14.6738H16.626V20.5335H22.4856V14.6738Z" stroke="#2A2D34" stroke-width="2" stroke-miterlimit="10"/>
<path d="M22.4851 26.3931H6.85938V32.2527H22.4851V26.3931Z" stroke="#2A2D34" stroke-width="2" stroke-miterlimit="10"/>
<path d="M22.4854 38.1123H1V43.9719H22.4854V38.1123Z" stroke="#2A2D34" stroke-width="2" stroke-miterlimit="10"/>
<path d="M22.4849 49.8315H10.7656V55.6912H22.4849V49.8315Z" stroke="#2A2D34" stroke-width="2" stroke-miterlimit="10"/>
<path d="M36.186 56.6678C41.0402 56.6678 44.9754 52.7326 44.9754 47.8783C44.9754 43.024 41.0402 39.0889 36.186 39.0889C31.3317 39.0889 27.3965 43.024 27.3965 47.8783C27.3965 52.7326 31.3317 56.6678 36.186 56.6678Z" stroke="#2A2D34" stroke-width="2" stroke-miterlimit="10"/>
<path d="M33.2559 46.4136L36.1857 49.3435L40.5804 44.9487" stroke="#2A2D34" stroke-width="2" stroke-miterlimit="10"/>
<path d="M36.185 33.2293C41.0393 33.2293 44.9744 29.2941 44.9744 24.4399C44.9744 19.5856 41.0393 15.6504 36.185 15.6504C31.3307 15.6504 27.3955 19.5856 27.3955 24.4399C27.3955 29.2941 31.3307 33.2293 36.185 33.2293Z" stroke="#2A2D34" stroke-width="2" stroke-miterlimit="10"/>
<path d="M33.2559 22.9749L36.1857 25.9047L40.5804 21.51" stroke="#2A2D34" stroke-width="2" stroke-miterlimit="10"/>
<path d="M74.4902 58.901C79.372 58.1965 83.8366 55.7564 87.0656 52.028C90.2947 48.2995 92.072 43.5323 92.072 38.5999C92.072 33.6675 90.2947 28.9004 87.0656 25.1719C83.8366 21.4434 79.372 19.0033 74.4902 18.2988" stroke="#2A2D34" stroke-width="2" stroke-miterlimit="10"/>
<path d="M74.4902 37.1358L86.2095 25.4165" stroke="#2A2D34" stroke-width="2" stroke-miterlimit="10"/>
<path d="M75.2227 43.9719L89.8718 29.3228" stroke="#2A2D34" stroke-width="2" stroke-miterlimit="10"/>
<path d="M78.1523 47.8781L91.8248 34.2056" stroke="#2A2D34" stroke-width="2" stroke-miterlimit="10"/>
<path d="M82.0586 51.7846L91.8247 42.0186" stroke="#2A2D34" stroke-width="2" stroke-miterlimit="10"/>
<path d="M74.2461 42.9954L84.9888 53.738" stroke="#2A2D34" stroke-width="2" stroke-miterlimit="10"/>
<path d="M26.3916 7.8374H56.6664" stroke="#2A2D34" stroke-width="2" stroke-miterlimit="10"/>
<path d="M43.9707 13.6973H56.6666" stroke="#2A2D34" stroke-width="2" stroke-miterlimit="10"/>
<path d="M47.877 19.5569H70.3389" stroke="#2A2D34" stroke-width="2" stroke-miterlimit="10"/>
<path d="M47.877 25.4165H70.3389" stroke="#2A2D34" stroke-width="2" stroke-miterlimit="10"/>
<path d="M47.877 31.2761H70.3389" stroke="#2A2D34" stroke-width="2" stroke-miterlimit="10"/>
<path d="M47.877 37.1357H70.3389" stroke="#2A2D34" stroke-width="2" stroke-miterlimit="10"/>
<path d="M48.1211 42.9954H70.0948" stroke="#2A2D34" stroke-width="2" stroke-miterlimit="10"/>
<path d="M27.3682 63.5042H43.9705" stroke="#2A2D34" stroke-width="2" stroke-miterlimit="10"/>
<path d="M67.2904 52.6623C68.9294 54.3013 70.0454 56.3895 70.4976 58.6628C70.9498 60.9361 70.7177 63.2925 69.8306 65.4339C68.9436 67.5753 67.4417 69.4056 65.5144 70.6933C63.5872 71.9811 61.3214 72.6683 59.0036 72.6683C56.6857 72.6683 54.4199 71.9811 52.4927 70.6933C50.5655 69.4056 49.0633 67.5753 48.1763 65.4339C47.2893 63.2925 47.0572 60.9361 47.5093 58.6628C47.9615 56.3895 49.0777 54.3013 50.7167 52.6623C51.8049 51.5741 53.0968 50.7108 54.5187 50.1219C55.9406 49.5329 57.4645 49.2297 59.0036 49.2297C60.5426 49.2297 62.0664 49.5329 63.4883 50.1219C64.9101 50.7108 66.2022 51.5741 67.2904 52.6623V52.6623Z" stroke="#2A2D34" stroke-width="2" stroke-miterlimit="10"/>
<path d="M67.291 69.2373L71.4344 73.3807" stroke="#2A2D34" stroke-width="2" stroke-miterlimit="10"/>
<path d="M88.0074 89.9534C87.1822 90.6838 86.1013 91.0575 85.0011 90.9929C83.901 90.9282 82.8714 90.4304 82.1374 89.6083L71.7802 79.2497C70.958 78.516 70.4599 77.4864 70.3949 76.3863C70.33 75.2861 70.7036 74.205 71.4339 73.3797C72.2591 72.6493 73.34 72.2755 74.4401 72.3402C75.5403 72.4049 76.5699 72.9027 77.3038 73.7248L87.6625 84.0846C88.4842 84.8185 88.9817 85.8479 89.0463 86.9477C89.111 88.0476 88.7374 89.1282 88.0074 89.9534V89.9534Z" stroke="#2A2D34" stroke-width="2" stroke-miterlimit="10"/>
<path d="M74.8828 76.8381L76.2644 78.2197" stroke="#2A2D34" stroke-width="2" stroke-miterlimit="10"/>
<path d="M79.0254 80.9814L80.407 82.363" stroke="#2A2D34" stroke-width="2" stroke-miterlimit="10"/>
<path d="M83.1699 85.125L84.5515 86.5066" stroke="#2A2D34" stroke-width="2" stroke-miterlimit="10"/>
<path d="M51.9824 59.7866C51.9824 58.2326 52.5999 56.7421 53.6988 55.6432C54.7977 54.5443 56.288 53.927 57.8421 53.927" stroke="#2A2D34" stroke-width="2" stroke-miterlimit="10"/>
</svg>
