<svg width="113" height="90" viewBox="0 0 113 90" fill="none" xmlns="http://www.w3.org/2000/svg">
<path fill-rule="evenodd" clip-rule="evenodd" d="M109.382 6.91576C110.517 4.61779 110.604 2.3176 109.847 0.412848C109.746 0.160083 109.401 -0.00936536 109.014 0.000401138C103.588 0.138159 98.5585 2.54918 96.7164 6.29097C95.7575 8.21908 95.7954 10.2171 96.6259 12.0078C96.7945 12.3713 97.5616 12.3541 97.7098 11.9854C99.0292 8.70089 102.155 5.61394 105.152 4.54519C102.273 5.57581 99.6141 9.48718 98.7565 12.9641C98.6467 13.4089 99.2421 13.7884 99.8914 13.6842C103.817 13.0537 107.615 10.4948 109.382 6.91576Z" fill="#3CB27A"/>
<path fill-rule="evenodd" clip-rule="evenodd" d="M107.24 16.3884C109.333 16.1345 111.122 15.5092 112.36 14.6975C112.525 14.5898 112.554 14.4193 112.433 14.285C110.742 12.4033 107.424 11.3105 104.018 11.726C102.26 11.9366 100.739 12.5202 99.6096 13.3252C99.3803 13.4886 99.6177 13.7553 99.9435 13.7025C102.847 13.2325 106.126 13.4582 107.821 14.2144C106.19 13.4893 102.415 13.6639 99.4993 14.3524C99.1263 14.4404 99.0094 14.7595 99.279 14.9596C100.909 16.1697 103.981 16.7843 107.24 16.3884Z" fill="#3CB27A"/>
<path d="M19.0179 60.741C24.3884 60.741 28.7419 56.3874 28.7419 51.017C28.7419 45.6466 24.3884 41.293 19.0179 41.293C13.6475 41.293 9.29395 45.6466 9.29395 51.017C9.29395 56.3874 13.6475 60.741 19.0179 60.741Z" stroke="#2A2D34" stroke-width="2" stroke-miterlimit="10"/>
<path d="M32.7781 51.384C32.7791 50.513 33.12 49.6767 33.7283 49.0532C34.3366 48.4298 35.1644 48.0683 36.0352 48.0459C35.6398 45.7278 34.7728 43.5155 33.488 41.5459C32.8485 42.1412 32.0016 42.4627 31.1282 42.4414C30.2548 42.4201 29.4244 42.0577 28.8147 41.4319C28.205 40.8061 27.8643 39.9667 27.8657 39.093C27.8671 38.2193 28.2103 37.3809 28.822 36.7571C26.888 35.417 24.6996 34.4881 22.3921 34.0281C22.3522 34.8873 21.9818 35.6977 21.3584 36.2903C20.735 36.8829 19.9068 37.2119 19.0466 37.2083C18.1865 37.2046 17.3611 36.8688 16.7427 36.271C16.1243 35.6732 15.7607 34.8595 15.728 34C13.4451 34.4363 11.2745 35.3312 9.34717 36.6301C9.87623 37.2723 10.147 38.0884 10.1069 38.9194C10.0669 39.7505 9.71877 40.537 9.13037 41.1252C8.54197 41.7135 7.7554 42.0614 6.92432 42.1013C6.09323 42.1412 5.27707 41.8703 4.63501 41.3411C3.35606 43.2399 2.46918 45.375 2.02612 47.6211C2.82189 47.7353 3.54938 48.1334 4.07471 48.7419C4.60003 49.3505 4.88769 50.1285 4.88452 50.9324C4.88135 51.7363 4.58772 52.5118 4.05762 53.1162C3.52751 53.7206 2.79664 54.113 2 54.2209C2.42145 56.4507 3.27972 58.575 4.52515 60.4719C5.17506 60.0193 5.96448 59.812 6.75293 59.887C7.54138 59.962 8.27766 60.3145 8.83057 60.8816C9.38348 61.4487 9.71718 62.1935 9.77222 62.9836C9.82726 63.7737 9.60005 64.5578 9.1311 65.196C10.992 66.4909 13.0906 67.4047 15.3062 67.885C15.4357 67.0915 15.8476 66.3716 16.4661 65.8579C17.0846 65.3443 17.8681 65.0717 18.6719 65.0901C19.4756 65.1085 20.2455 65.4166 20.8398 65.958C21.4342 66.4994 21.8129 67.2376 21.906 68.0361C24.1635 67.654 26.3221 66.8249 28.2551 65.5979C27.7451 64.9424 27.4974 64.1207 27.5601 63.2925C27.6227 62.4643 27.9912 61.689 28.594 61.1177C29.1968 60.5463 29.9907 60.2197 30.821 60.2014C31.6514 60.1832 32.4589 60.4747 33.0862 61.019C34.4366 59.1267 35.3889 56.98 35.886 54.709C35.0435 54.6506 34.2544 54.2752 33.6777 53.6582C33.101 53.0412 32.7796 52.2286 32.7781 51.384V51.384Z" stroke="#2A2D34" stroke-width="2" stroke-miterlimit="10"/>
<path d="M19.0184 57.0959C22.3752 57.0959 25.0964 54.3747 25.0964 51.0179C25.0964 47.6612 22.3752 44.9399 19.0184 44.9399C15.6616 44.9399 12.9404 47.6612 12.9404 51.0179C12.9404 54.3747 15.6616 57.0959 19.0184 57.0959Z" stroke="#2A2D34" stroke-width="2" stroke-miterlimit="10"/>
<rect x="29" y="35" width="14" height="29" fill="#9BD8CE"/>
<path d="M79.8398 19.0401C79.8398 17.8454 80.1963 16.6776 80.8644 15.6843C81.5326 14.691 82.4821 13.9168 83.5931 13.4597C84.7042 13.0026 85.9267 12.883 87.1062 13.1161C88.2856 13.3493 89.3691 13.9246 90.2194 14.7694C91.0697 15.6143 91.6485 16.6906 91.883 17.8623C92.1175 19.034 91.997 20.2485 91.5366 21.3521C91.0763 22.4557 90.2967 23.399 89.2967 24.0626C88.2967 24.7262 87.1212 25.0803 85.9187 25.0801" stroke="#2A2D34" stroke-width="2" stroke-miterlimit="10"/>
<path d="M79.84 82.4599C79.8403 83.6548 79.4836 84.823 78.8155 85.8166C78.1473 86.8102 77.1977 87.5846 76.0865 88.042C74.9753 88.4994 73.7524 88.6191 72.5727 88.3861C71.393 88.153 70.3094 87.5775 69.4589 86.7326C68.6084 85.8877 68.0291 84.8112 67.7945 83.6392C67.5599 82.4673 67.6805 81.2526 68.1409 80.1487C68.6013 79.0448 69.3809 78.1014 70.3811 77.4376C71.3813 76.7739 72.5571 76.4197 73.7599 76.4199" stroke="#2A2D34" stroke-width="2" stroke-miterlimit="10"/>
<path d="M79.8389 19.0403V82.4602" stroke="#2A2D34" stroke-width="2" stroke-miterlimit="10"/>
<path d="M28.1592 19.04C28.1595 17.438 28.8003 15.9017 29.9407 14.769C31.0811 13.6363 32.6278 13 34.2404 13" stroke="#2A2D34" stroke-width="2" stroke-miterlimit="10"/>
<path d="M22.0801 88.4999C20.4676 88.4999 18.9212 87.8635 17.781 86.7308C16.6408 85.5981 16 84.0618 16 82.4599C16 80.858 16.6408 79.3218 17.781 78.1891C18.9212 77.0563 20.4676 76.4199 22.0801 76.4199" stroke="#2A2D34" stroke-width="2" stroke-miterlimit="10"/>
<path d="M28.1592 19.0403V76.4202" stroke="#2A2D34" stroke-width="2" stroke-miterlimit="10"/>
<path d="M34.2402 13H85.9202" stroke="#2A2D34" stroke-width="2" stroke-miterlimit="10"/>
<path d="M22.0811 88.5H75.281" stroke="#2A2D34" stroke-width="2" stroke-miterlimit="10"/>
<path d="M20.5586 76.4199H73.7585" stroke="#2A2D34" stroke-width="2" stroke-miterlimit="10"/>
<path d="M32.7197 52.26H75.2797" stroke="#2A2D34" stroke-width="2" stroke-miterlimit="10"/>
<path d="M32.7188 58.3H75.2787" stroke="#2A2D34" stroke-width="2" stroke-miterlimit="10"/>
<path d="M32.7188 64.3398H75.2787" stroke="#2A2D34" stroke-width="2" stroke-miterlimit="10"/>
<path d="M32.7188 70.3801H75.2787" stroke="#2A2D34" stroke-width="2" stroke-miterlimit="10"/>
<rect x="71" y="10" width="29" height="30" fill="#9BD8CE"/>
<path d="M88.7468 22.0662C88.626 22.5408 88.379 22.9738 88.032 23.3193L87.4808 23.8709C87.2274 24.1245 86.9264 24.3256 86.5952 24.4629C86.264 24.6001 85.909 24.6707 85.5505 24.6707C85.1919 24.6707 84.8369 24.6001 84.5057 24.4629C84.1745 24.3256 83.8736 24.1245 83.6201 23.8709L78.657 18.9078C78.145 18.3959 77.8574 17.7015 77.8574 16.9775C77.8574 16.2534 78.145 15.559 78.657 15.047L79.2082 14.4959C79.7201 13.9839 80.4145 13.6963 81.1385 13.6963C81.8626 13.6963 82.5569 13.9839 83.0689 14.4959L86.811 18.238" stroke="#2A2D34" stroke-width="2" stroke-miterlimit="10"/>
<path d="M83.9326 22.2883C84.0536 21.8137 84.3005 21.3806 84.6474 21.0348L85.1986 20.4836C85.7105 19.9717 86.4049 19.6841 87.1289 19.6841C87.853 19.6841 88.5473 19.9717 89.0593 20.4836L94.0225 25.4467C94.5344 25.9587 94.822 26.6531 94.822 27.3772C94.822 28.1012 94.5344 28.7956 94.0225 29.3076L93.4713 29.8587C93.2178 30.1123 92.9169 30.3134 92.5857 30.4506C92.2545 30.5879 91.8994 30.6585 91.5409 30.6585C91.1824 30.6585 90.8274 30.5879 90.4962 30.4506C90.1649 30.3134 89.864 30.1123 89.6105 29.8587L85.8684 26.1167" stroke="#2A2D34" stroke-width="2" stroke-miterlimit="10"/>
<path d="M106.513 38.9359H87.2756C78.7933 38.9359 71.5656 32.441 71.0335 23.9753C70.895 21.8427 71.1866 19.704 71.8911 17.6864C72.5956 15.6688 73.6986 13.8134 75.1344 12.2306C76.5703 10.6478 78.3098 9.36987 80.2495 8.47275C82.1891 7.57562 84.2893 7.07758 86.4253 7.00836C88.5612 6.93914 90.6893 7.30015 92.683 8.06981C94.6766 8.83947 96.4952 10.0021 98.0305 11.4886C99.5659 12.9752 100.787 14.7552 101.62 16.723C102.454 18.6908 102.884 20.8061 102.883 22.9431C102.883 24.8649 102.12 26.7079 100.761 28.0668C99.4023 29.4257 97.5593 30.1893 95.6376 30.1894" stroke="#2A2D34" stroke-width="2" stroke-miterlimit="10"/>
<path d="M101.854 43L106.416 38.9359L101.854 34.7722" stroke="#2A2D34" stroke-width="2" stroke-miterlimit="10"/>
<path d="M50.8174 25C50.7833 31.1705 42.9467 34.521 35.5449 35.9087" stroke="#2A2D34" stroke-miterlimit="10"/>
<path d="M48.0908 27.182L50.8178 25.0005L52.9997 27.7279" stroke="#2A2D34" stroke-miterlimit="10"/>
<path d="M38.2376 39.054H36.0791V42.6515H38.2376V39.054Z" stroke="#2A2D34" stroke-miterlimit="10"/>
<path d="M42.555 36.8955H40.3965V42.6516H42.555V36.8955Z" stroke="#2A2D34" stroke-miterlimit="10"/>
<path d="M46.8714 34.7368H44.7129V42.6514H46.8714V34.7368Z" stroke="#2A2D34" stroke-miterlimit="10"/>
<path d="M51.1888 32.5784H49.0303V42.6515H51.1888V32.5784Z" stroke="#2A2D34" stroke-miterlimit="10"/>
<path d="M35 44.0906H52.9877" stroke="#2A2D34" stroke-miterlimit="10"/>
<path d="M64.3451 43.6553C68.4016 43.6553 71.6901 40.3746 71.6901 36.3276C71.6901 32.2807 68.4016 29 64.3451 29C60.2885 29 57 32.2807 57 36.3276C57 40.3746 60.2885 43.6553 64.3451 43.6553Z" stroke="#2A2D34" stroke-width="1.5" stroke-miterlimit="10"/>
<path d="M64.3447 29V36.3276L69.2021 41.6461" stroke="#2A2D34" stroke-width="1.5" stroke-miterlimit="10"/>
<path d="M64.3447 36.3278L71.216 34.2004" stroke="#2A2D34" stroke-width="1.5" stroke-miterlimit="10"/>
</svg>
