<svg width="90" height="79" viewBox="0 0 90 79" fill="none" xmlns="http://www.w3.org/2000/svg">
<path fill-rule="evenodd" clip-rule="evenodd" d="M85.3585 18.0443C87.924 14.5275 88.9471 10.5418 88.5705 6.87239C88.5207 6.38551 88.0782 5.93583 87.5038 5.78095C79.4536 3.61201 71.1044 5.59677 66.9357 11.3258C64.7732 14.2735 64.0528 17.7865 64.5809 21.2886C64.6881 21.9994 65.8254 22.31 66.187 21.7307C69.4077 16.5697 75.2135 12.5566 80.0459 12.0177C75.4028 12.5424 69.9643 18.2053 67.3494 23.9082C67.0147 24.6376 67.7448 25.5662 68.7421 25.6721C74.773 26.3127 81.3648 23.5222 85.3585 18.0443Z" fill="#3CB27A"/>
<path fill-rule="evenodd" clip-rule="evenodd" d="M78.5199 33.6673C81.7032 34.1527 84.5822 33.8531 86.7229 32.9828C87.007 32.8674 87.1161 32.582 86.9905 32.2935C85.2293 28.2498 80.7644 24.8642 75.5829 24.0782C72.91 23.6659 70.4426 24.0117 68.4647 24.9184C68.0632 25.1024 68.3094 25.6745 68.8102 25.7269C73.2713 26.1939 78.0166 28.0455 80.2209 30.1215C78.0986 28.1282 72.4673 26.7571 67.9029 26.6667C67.319 26.6551 67.0227 27.1615 67.3423 27.6314C69.2751 30.4729 73.5625 32.9123 78.5199 33.6673Z" fill="#3CB27A"/>
<path d="M36.25 77.5C55.718 77.5 71.5 61.718 71.5 42.25C71.5 22.782 55.718 7 36.25 7C16.782 7 1 22.782 1 42.25C1 61.718 16.782 77.5 36.25 77.5Z" stroke="#2A2D34" stroke-width="2" stroke-miterlimit="10"/>
<path d="M36.25 10.4121V12.6861" stroke="#2A2D34" stroke-width="2" stroke-miterlimit="10"/>
<path d="M36.25 74.0889V71.8149" stroke="#2A2D34" stroke-width="2" stroke-miterlimit="10"/>
<path d="M20.332 14.6772L21.469 16.6462" stroke="#2A2D34" stroke-width="2" stroke-miterlimit="10"/>
<path d="M52.1702 69.8232L51.0332 67.8542" stroke="#2A2D34" stroke-width="2" stroke-miterlimit="10"/>
<path d="M8.67773 26.3311L10.6467 27.4681" stroke="#2A2D34" stroke-width="2" stroke-miterlimit="10"/>
<path d="M63.8245 58.1702L61.8555 57.0332" stroke="#2A2D34" stroke-width="2" stroke-miterlimit="10"/>
<path d="M4.41211 42.25H6.68611" stroke="#2A2D34" stroke-width="2" stroke-miterlimit="10"/>
<path d="M68.0904 42.25H65.8164" stroke="#2A2D34" stroke-width="2" stroke-miterlimit="10"/>
<path d="M8.67773 58.1702L10.6467 57.0332" stroke="#2A2D34" stroke-width="2" stroke-miterlimit="10"/>
<path d="M63.8245 26.3311L61.8555 27.4681" stroke="#2A2D34" stroke-width="2" stroke-miterlimit="10"/>
<path d="M20.332 69.8232L21.469 67.8542" stroke="#2A2D34" stroke-width="2" stroke-miterlimit="10"/>
<path d="M52.1702 14.6772L51.0332 16.6462" stroke="#2A2D34" stroke-width="2" stroke-miterlimit="10"/>
<path d="M21.4668 22.9199L43.0718 51.3469" stroke="#2A2D34" stroke-width="2" stroke-miterlimit="10"/>
<path d="M29.4277 47.9351L48.7587 32.0161" stroke="#2A2D34" stroke-width="2" stroke-miterlimit="10"/>
</svg>
